<svg id="Group_944" data-name="Group 944" xmlns="http://www.w3.org/2000/svg" viewBox="0 0 158.086 37.795">
  <defs>
    <style>
      .cls-1 {
        fill: #5c5c5c;
      }

      .cls-2 {
        fill: #e83d52;
      }
    </style>
  </defs>
  <path id="Path_6743" data-name="Path 6743" class="cls-1" d="M140.388,9.992l4.569,14.73a1.794,1.794,0,0,0,2.339,1.389l5.373-16.083h2.961l-8.3,24.782-2.668,3.619h-1.645l3.326-9.577c-.731,0-3.07-.073-4.24-3.911L137.5,10.028h2.888Zm25.4-.183c6.36,0,8.3,2.376,8.3,9.869,0,6.981-1.937,9.321-8.3,9.321s-8.3-2.6-8.3-9.321C157.494,12,159.65,9.809,165.791,9.809Zm0,16.558c3.838,0,5.666-.512,5.666-6.689,0-6.726-1.535-7.237-5.666-7.237-3.984,0-5.666.475-5.666,7.237C160.126,25.965,162.136,26.367,165.791,26.367ZM177.3,1h2.559V11.125A22.138,22.138,0,0,1,186.845,9.7c5.337,0,6.214,4.971,6.214,9.8,0,4.313-1.06,9.54-6.214,9.54a16.238,16.238,0,0,1-6.945-2.3l-.694,2.083h-1.864V1Zm9.54,25.4c2.3,0,3.582-2.3,3.582-6.908,0-5.775-1.316-7.164-3.582-7.164a25.11,25.11,0,0,0-6.945.914V24.759A17.192,17.192,0,0,0,186.845,26.4ZM204.572,9.809c6.36,0,8.3,2.376,8.3,9.869,0,6.981-1.937,9.321-8.3,9.321s-8.3-2.6-8.3-9.321C196.275,12,198.4,9.809,204.572,9.809Zm0,16.558c3.838,0,5.666-.512,5.666-6.689,0-6.726-1.535-7.237-5.666-7.237-3.984,0-5.666.475-5.666,7.237C198.87,25.965,200.917,26.367,204.572,26.367Zm10.746-15.754,3.509-.621.621-5.263h1.974V9.992h5.483v2.632h-5.483v9.5c0,3.07.8,3.8,2.01,4.094,0,0,2.924.731,3.143.731v1.828H223.47c-2.741,0-4.679-1.718-4.679-6.689v-9.5h-3.509V10.613ZM230.159,22.2a4.4,4.4,0,0,1,4.715-4.715s7.859.037,7.859,0c0,0,.037-2.339,0-2.376,0-2.157-1.133-2.924-2.924-2.924-2.559,0-5.629.183-9.065.439v-1.9a37.021,37.021,0,0,1,9.174-1.06c2.961-.037,5.41,1.572,5.41,5.446V28.816h-1.937l-.658-2.266c-.073,0-4.642,2.486-7.859,2.486a4.458,4.458,0,0,1-4.715-4.679Zm4.715,4.2c2.851,0,7.859-1.791,7.859-1.791V19.532l-7.859.585a2.117,2.117,0,0,0-2.083,2.3v1.754C232.79,25.892,233.668,26.4,234.874,26.4Z" transform="translate(-87.241 -0.634)"/>
  <path id="Path_6744" data-name="Path 6744" class="cls-2" d="M0,24.088v3.655l16.192,9.723,4.861-2.6L.073,22.26ZM3.143,18.6l19.372,11.66V6.981ZM27.268,31.288l4.715-2.559V9.65L27.268,6.8ZM15.644,0,0,9.394v5.519L20.286,2.741Z"/>
</svg>
